<mxfile host="app.diagrams.net" modified="2023-11-08T12:24:18.656Z" agent="Mozilla/5.0 (Windows NT 10.0; Win64; x64) AppleWebKit/537.36 (KHTML, like Gecko) Chrome/119.0.0.0 Safari/537.36" etag="tRHkWB0ejxFb6FADx2oB" version="21.7.5" type="github">
  <diagram id="C5RBs43oDa-KdzZeNtuy" name="Page-1">
    <mxGraphModel dx="800" dy="1850" grid="1" gridSize="10" guides="1" tooltips="1" connect="1" arrows="1" fold="1" page="1" pageScale="1" pageWidth="827" pageHeight="1169" math="0" shadow="0">
      <root>
        <mxCell id="WIyWlLk6GJQsqaUBKTNV-0" />
        <mxCell id="WIyWlLk6GJQsqaUBKTNV-1" parent="WIyWlLk6GJQsqaUBKTNV-0" />
        <mxCell id="WIyWlLk6GJQsqaUBKTNV-3" value="Frontend" style="rounded=1;whiteSpace=wrap;html=1;fontSize=12;glass=0;strokeWidth=1;shadow=0;" parent="WIyWlLk6GJQsqaUBKTNV-1" vertex="1">
          <mxGeometry x="120" y="50" width="120" height="40" as="geometry" />
        </mxCell>
        <mxCell id="h03rKYbJXhHbw70bjrxY-0" value="Service A - 1" style="rounded=0;whiteSpace=wrap;html=1;" vertex="1" parent="WIyWlLk6GJQsqaUBKTNV-1">
          <mxGeometry x="110" y="240" width="130" height="30" as="geometry" />
        </mxCell>
        <mxCell id="h03rKYbJXhHbw70bjrxY-4" value="Service A - 2" style="rounded=0;whiteSpace=wrap;html=1;" vertex="1" parent="WIyWlLk6GJQsqaUBKTNV-1">
          <mxGeometry x="110" y="280" width="130" height="30" as="geometry" />
        </mxCell>
        <mxCell id="h03rKYbJXhHbw70bjrxY-5" value="Service A - ..." style="rounded=0;whiteSpace=wrap;html=1;" vertex="1" parent="WIyWlLk6GJQsqaUBKTNV-1">
          <mxGeometry x="110" y="320" width="130" height="30" as="geometry" />
        </mxCell>
        <mxCell id="h03rKYbJXhHbw70bjrxY-9" value="Service B - 1" style="rounded=0;whiteSpace=wrap;html=1;" vertex="1" parent="WIyWlLk6GJQsqaUBKTNV-1">
          <mxGeometry x="295" y="240" width="130" height="30" as="geometry" />
        </mxCell>
        <mxCell id="h03rKYbJXhHbw70bjrxY-10" value="Service B - 2" style="rounded=0;whiteSpace=wrap;html=1;" vertex="1" parent="WIyWlLk6GJQsqaUBKTNV-1">
          <mxGeometry x="295" y="280" width="130" height="30" as="geometry" />
        </mxCell>
        <mxCell id="h03rKYbJXhHbw70bjrxY-11" value="Service B - ..." style="rounded=0;whiteSpace=wrap;html=1;" vertex="1" parent="WIyWlLk6GJQsqaUBKTNV-1">
          <mxGeometry x="295" y="320" width="130" height="30" as="geometry" />
        </mxCell>
        <mxCell id="h03rKYbJXhHbw70bjrxY-20" style="edgeStyle=orthogonalEdgeStyle;rounded=1;orthogonalLoop=1;jettySize=auto;html=1;exitX=0.5;exitY=1;exitDx=0;exitDy=0;entryX=0.5;entryY=0;entryDx=0;entryDy=0;" edge="1" parent="WIyWlLk6GJQsqaUBKTNV-1" source="h03rKYbJXhHbw70bjrxY-12" target="h03rKYbJXhHbw70bjrxY-9">
          <mxGeometry relative="1" as="geometry" />
        </mxCell>
        <mxCell id="h03rKYbJXhHbw70bjrxY-24" value="xxx.com/serviceB" style="edgeLabel;html=1;align=center;verticalAlign=middle;resizable=0;points=[];" vertex="1" connectable="0" parent="h03rKYbJXhHbw70bjrxY-20">
          <mxGeometry x="0.4543" y="1" relative="1" as="geometry">
            <mxPoint x="-1" y="1" as="offset" />
          </mxGeometry>
        </mxCell>
        <mxCell id="h03rKYbJXhHbw70bjrxY-21" style="edgeStyle=orthogonalEdgeStyle;rounded=0;orthogonalLoop=1;jettySize=auto;html=1;exitX=0.5;exitY=1;exitDx=0;exitDy=0;entryX=0.5;entryY=0;entryDx=0;entryDy=0;" edge="1" parent="WIyWlLk6GJQsqaUBKTNV-1" source="h03rKYbJXhHbw70bjrxY-12" target="h03rKYbJXhHbw70bjrxY-0">
          <mxGeometry relative="1" as="geometry" />
        </mxCell>
        <mxCell id="h03rKYbJXhHbw70bjrxY-23" value="xxx.com/serviceA" style="edgeLabel;html=1;align=center;verticalAlign=middle;resizable=0;points=[];" vertex="1" connectable="0" parent="h03rKYbJXhHbw70bjrxY-21">
          <mxGeometry x="0.245" y="2" relative="1" as="geometry">
            <mxPoint x="-57" y="33" as="offset" />
          </mxGeometry>
        </mxCell>
        <mxCell id="h03rKYbJXhHbw70bjrxY-22" style="orthogonalLoop=1;jettySize=auto;html=1;exitX=0.5;exitY=1;exitDx=0;exitDy=0;entryX=0.5;entryY=0;entryDx=0;entryDy=0;edgeStyle=orthogonalEdgeStyle;rounded=0;" edge="1" parent="WIyWlLk6GJQsqaUBKTNV-1" source="h03rKYbJXhHbw70bjrxY-12" target="h03rKYbJXhHbw70bjrxY-14">
          <mxGeometry relative="1" as="geometry" />
        </mxCell>
        <mxCell id="h03rKYbJXhHbw70bjrxY-12" value="Frontend" style="rounded=1;whiteSpace=wrap;html=1;fontSize=12;glass=0;strokeWidth=1;shadow=0;" vertex="1" parent="WIyWlLk6GJQsqaUBKTNV-1">
          <mxGeometry x="300" y="50" width="120" height="40" as="geometry" />
        </mxCell>
        <mxCell id="h03rKYbJXhHbw70bjrxY-13" value="Frontend" style="rounded=1;whiteSpace=wrap;html=1;fontSize=12;glass=0;strokeWidth=1;shadow=0;" vertex="1" parent="WIyWlLk6GJQsqaUBKTNV-1">
          <mxGeometry x="480" y="50" width="120" height="40" as="geometry" />
        </mxCell>
        <mxCell id="h03rKYbJXhHbw70bjrxY-14" value="Service C - 1" style="rounded=0;whiteSpace=wrap;html=1;" vertex="1" parent="WIyWlLk6GJQsqaUBKTNV-1">
          <mxGeometry x="480" y="240" width="130" height="30" as="geometry" />
        </mxCell>
        <mxCell id="h03rKYbJXhHbw70bjrxY-15" value="Service C - 2" style="rounded=0;whiteSpace=wrap;html=1;" vertex="1" parent="WIyWlLk6GJQsqaUBKTNV-1">
          <mxGeometry x="480" y="280" width="130" height="30" as="geometry" />
        </mxCell>
        <mxCell id="h03rKYbJXhHbw70bjrxY-16" value="Service C - ..." style="rounded=0;whiteSpace=wrap;html=1;" vertex="1" parent="WIyWlLk6GJQsqaUBKTNV-1">
          <mxGeometry x="480" y="320" width="130" height="30" as="geometry" />
        </mxCell>
        <mxCell id="h03rKYbJXhHbw70bjrxY-25" value="xxx.com/serviceC" style="edgeLabel;html=1;align=center;verticalAlign=middle;resizable=0;points=[];" vertex="1" connectable="0" parent="WIyWlLk6GJQsqaUBKTNV-1">
          <mxGeometry x="545" y="199.9955172413793" as="geometry" />
        </mxCell>
        <mxCell id="h03rKYbJXhHbw70bjrxY-28" value="" style="shape=curlyBracket;whiteSpace=wrap;html=1;rounded=1;labelPosition=left;verticalLabelPosition=middle;align=right;verticalAlign=middle;" vertex="1" parent="WIyWlLk6GJQsqaUBKTNV-1">
          <mxGeometry x="610" y="25" width="10" height="90" as="geometry" />
        </mxCell>
        <mxCell id="h03rKYbJXhHbw70bjrxY-33" value="&lt;div style=&quot;font-size: 11px;&quot;&gt;&lt;font style=&quot;font-size: 11px;&quot;&gt;config :&amp;nbsp;&lt;/font&gt;&lt;/div&gt;&lt;div style=&quot;font-size: 11px;&quot;&gt;&lt;font style=&quot;font-size: 11px;&quot;&gt;upstream backend&amp;nbsp; {&lt;/font&gt;&lt;/div&gt;&lt;div style=&quot;font-size: 11px;&quot;&gt;&lt;font style=&quot;font-size: 11px;&quot;&gt;&amp;nbsp; server 192.168.0.0 ;&lt;/font&gt;&lt;/div&gt;&lt;div style=&quot;font-size: 11px;&quot;&gt;&lt;font style=&quot;font-size: 11px;&quot;&gt;&amp;nbsp; server 192.168.1.1;&lt;/font&gt;&lt;/div&gt;&lt;div style=&quot;font-size: 11px;&quot;&gt;&lt;font style=&quot;font-size: 11px;&quot;&gt;&amp;nbsp; server ...;&lt;/font&gt;&lt;/div&gt;&lt;div style=&quot;font-size: 11px;&quot;&gt;&lt;font style=&quot;font-size: 11px;&quot;&gt;}&lt;/font&gt;&lt;/div&gt;" style="text;html=1;align=left;verticalAlign=middle;resizable=0;points=[];autosize=1;dashed=1;dashPattern=12 12;rounded=0;glass=0;opacity=60;fillColor=#f5f5f5;fontColor=#333333;strokeColor=#666666;" vertex="1" parent="WIyWlLk6GJQsqaUBKTNV-1">
          <mxGeometry x="630" y="25" width="130" height="90" as="geometry" />
        </mxCell>
        <mxCell id="h03rKYbJXhHbw70bjrxY-37" style="edgeStyle=orthogonalEdgeStyle;rounded=0;orthogonalLoop=1;jettySize=auto;html=1;exitX=0.5;exitY=1;exitDx=0;exitDy=0;" edge="1" parent="WIyWlLk6GJQsqaUBKTNV-1" source="h03rKYbJXhHbw70bjrxY-36">
          <mxGeometry relative="1" as="geometry">
            <mxPoint x="685" y="20" as="targetPoint" />
          </mxGeometry>
        </mxCell>
        <mxCell id="h03rKYbJXhHbw70bjrxY-36" value="Ceph/nfs/ansible..." style="rounded=1;whiteSpace=wrap;html=1;" vertex="1" parent="WIyWlLk6GJQsqaUBKTNV-1">
          <mxGeometry x="630" y="-70" width="110" height="50" as="geometry" />
        </mxCell>
        <mxCell id="h03rKYbJXhHbw70bjrxY-38" value="Consul" style="rounded=0;whiteSpace=wrap;html=1;" vertex="1" parent="WIyWlLk6GJQsqaUBKTNV-1">
          <mxGeometry x="110" y="420" width="500" height="30" as="geometry" />
        </mxCell>
        <mxCell id="h03rKYbJXhHbw70bjrxY-40" style="edgeStyle=orthogonalEdgeStyle;rounded=0;orthogonalLoop=1;jettySize=auto;html=1;exitX=0.5;exitY=1;exitDx=0;exitDy=0;entryX=0.5;entryY=0;entryDx=0;entryDy=0;" edge="1" parent="WIyWlLk6GJQsqaUBKTNV-1" source="h03rKYbJXhHbw70bjrxY-39" target="h03rKYbJXhHbw70bjrxY-12">
          <mxGeometry relative="1" as="geometry" />
        </mxCell>
        <mxCell id="h03rKYbJXhHbw70bjrxY-42" value="xxx.com/" style="edgeLabel;html=1;align=center;verticalAlign=middle;resizable=0;points=[];fontSize=12;" vertex="1" connectable="0" parent="h03rKYbJXhHbw70bjrxY-40">
          <mxGeometry x="-0.075" y="-1" relative="1" as="geometry">
            <mxPoint as="offset" />
          </mxGeometry>
        </mxCell>
        <mxCell id="h03rKYbJXhHbw70bjrxY-39" value="Nginx" style="whiteSpace=wrap;html=1;" vertex="1" parent="WIyWlLk6GJQsqaUBKTNV-1">
          <mxGeometry x="295" y="-70" width="130" height="40" as="geometry" />
        </mxCell>
      </root>
    </mxGraphModel>
  </diagram>
</mxfile>
